#N canvas 581 29 510 750 10;
#X text 119 114 Low Frequency Oscillator;
#X text 179 133 Rate (Hz);
#X obj 123 136 nbx 5 14 -1e+37 1e+37 0 0 empty \$0-rate empty 0 -8
0 10 -262144 -1 -1 0.1 256;
#N canvas 59 146 554 309 init 0;
#X obj 222 58 loadbang;
#X obj 222 114 s \$0-rate;
#X obj 282 114 s \$0-depth;
#X obj 313 164 s \$0-shift;
#X obj 223 164 s \$0-feedback;
#X msg 223 142 1;
#X msg 223 192 1;
#X obj 223 214 s \$0-sp;
#X msg 282 92 0.8;
#X msg 313 142 0.1;
#X msg 253 192 time 90;
#X msg 222 92 0.1;
#X connect 0 0 11 0;
#X connect 0 0 8 0;
#X connect 0 0 9 0;
#X connect 0 0 5 0;
#X connect 0 0 6 0;
#X connect 0 0 10 0;
#X connect 5 0 4 0;
#X connect 6 0 7 0;
#X connect 8 0 2 0;
#X connect 9 0 3 0;
#X connect 10 0 7 0;
#X connect 11 0 1 0;
#X restore 16 7 pd init;
#X obj 418 383 r \$0-sp;
#X obj 14 4 pad.header pad.scope~;
#X obj 79 428 pad.scope~;
#X obj 63 700 pad.output~;
#X obj 63 323 cos~;
#X obj 108 277 +~;
#X obj 108 323 cos~;
#X obj 63 369 +~, f 8;
#X obj 63 398 *~ 0.5;
#X obj 63 95 phasor~ 110;
#X text 10 324 cos(ωt);
#X text 140 324 cos(ωt+α);
#X obj 123 155 phasor~ 0.1;
#X obj 123 177 *~ 2;
#X obj 123 199 -~ 1;
#X obj 123 221 abs~;
#X text 42 277 ωt;
#X text 133 276 ωt+α;
#X text 129 243 α;
#X text 120 369 cos(ωt) + cos(ωt+α);
#X text 12 24 The oscilloscope offers a visual representation of the
amplitude of a signal over time. The horizontal axis represents time
in samples. The vertical axis represents the amplitude of the signal.
The optimal tick time to visualize a specific frequency is around a
multiple of the period \, 1000 divided by the frequency., f 77;
#X connect 2 0 16 0;
#X connect 4 0 6 1;
#X connect 8 0 11 0;
#X connect 9 0 10 0;
#X connect 10 0 11 1;
#X connect 11 0 12 0;
#X connect 12 0 6 0;
#X connect 12 0 7 0;
#X connect 13 0 8 0;
#X connect 13 0 9 0;
#X connect 16 0 17 0;
#X connect 17 0 18 0;
#X connect 18 0 19 0;
#X connect 19 0 9 1;
