#N canvas 753 23 500 458 10;
#X obj 63 108 noise~;
#N canvas 194 150 450 300 init 0;
#X obj 222 58 loadbang;
#X obj 222 114 s \$0-rate;
#X obj 282 114 s \$0-depth;
#X obj 313 164 s \$0-shift;
#X obj 223 164 s \$0-feedback;
#X msg 223 142 1;
#X msg 222 92 0.3;
#X msg 282 92 0.35;
#X msg 313 142 0.2;
#X msg 223 192 1;
#X obj 223 214 s \$0-sp;
#X msg 253 192 ampscale 1;
#X connect 0 0 6 0;
#X connect 0 0 7 0;
#X connect 0 0 8 0;
#X connect 0 0 5 0;
#X connect 0 0 9 0;
#X connect 0 0 11 0;
#X connect 5 0 4 0;
#X connect 6 0 1 0;
#X connect 7 0 2 0;
#X connect 8 0 3 0;
#X connect 9 0 10 0;
#X connect 11 0 10 0;
#X restore 19 7 pd init;
#X obj 14 4 pad.header pad.vumeter~;
#X obj 63 407 pad.output~;
#X obj 71 297 pad.vumeter~;
#X obj 63 270 *~;
#X obj 71 385 nbx 5 14 -1e+37 1e+37 0 0 empty empty empty 0 -8 0 10
-262144 -1 -1 8.79932 256;
#X obj 78 159 *~ 2;
#X obj 78 181 -~ 1;
#X obj 78 203 abs~;
#X obj 78 225 *~ 108.2;
#X obj 78 247 dbtorms~;
#X text 12 24 The volume unit meter offers a visual representation
of the signal level. This implementation displays a set of 15 leds
where each led repesents about 8.33 dB from 0 dB to 100 dB. The leds
are ordered in 4 subsets : cold \, tepid \, warm and hot and the over
led blinks and persists 500 ms when the signal reaches 100 dB., f
77;
#X obj 114 304 pad.vumeterh~;
#X obj 78 137 phasor~ 0.3;
#X obj 114 328 nbx 5 14 -1e+37 1e+37 0 0 empty empty empty 0 -8 0 10
-262144 -1 -1 8.79932 256;
#X connect 0 0 5 0;
#X connect 4 0 6 0;
#X connect 5 0 3 0;
#X connect 5 0 4 0;
#X connect 5 0 13 0;
#X connect 7 0 8 0;
#X connect 8 0 9 0;
#X connect 9 0 10 0;
#X connect 10 0 11 0;
#X connect 11 0 5 1;
#X connect 13 0 15 0;
#X connect 14 0 7 0;
