#N canvas 604 248 546 295 10;
#X obj 259 69 tgl 15 0 empty empty empty 17 7 0 10 -262144 -262144
-262144 0 1;
#X obj 73 151 dbtorms;
#X obj 34 36 inlet~;
#X obj 73 196 line~;
#X obj 34 218 *~, f 7;
#X obj 34 248 dac~;
#X obj 73 173 pack 0 50;
#X obj 73 130 r \$0-master-out;
#X floatatom 220 69 4 0 100 0 dB - -, f 4;
#X text 204 51 Output;
#X obj 336 128 r \$0-master-out;
#X obj 294 177 f;
#X obj 294 151 sel 1;
#N canvas 0 22 450 300 sender 0;
#X msg 76 161 \; pd dsp 1;
#X obj 154 62 inlet;
#X obj 156 114 s \$0-master-out;
#X obj 178 187 f \$0;
#X obj 179 136 != 0;
#X obj 179 158 sel 1;
#X obj 101 92 != 0;
#X obj 101 114 sel 1;
#X obj 178 209 s pad-master-out;
#X connect 1 0 2 0;
#X connect 1 0 4 0;
#X connect 1 0 6 0;
#X connect 3 0 8 0;
#X connect 4 0 5 0;
#X connect 5 0 3 0;
#X connect 6 0 7 0;
#X connect 7 0 0 0;
#X restore 220 221 pd sender;
#X obj 336 150 sel 0;
#N canvas 0 22 450 300 colorb 0;
#X msg 289 80 color 0 0 0;
#X msg 316 99 color 72 72 0;
#X obj 289 59 sel 0;
#X obj 289 34 inlet;
#X obj 289 134 outlet;
#X connect 0 0 4 0;
#X connect 1 0 4 0;
#X connect 2 0 0 0;
#X connect 2 1 1 0;
#X connect 3 0 2 0;
#X restore 284 61 pd colorb;
#X obj 220 10 loadbang;
#X obj 220 32 f 0;
#X obj 357 41 != \$0;
#X obj 357 85 sel 1;
#X obj 357 107 f 0;
#X msg 265 40 set \$1;
#X obj 357 63 change;
#X obj 357 19 r pad-master-out;
#X connect 0 0 12 0;
#X connect 0 0 15 0;
#X connect 1 0 6 0;
#X connect 2 0 4 0;
#X connect 3 0 4 1;
#X connect 4 0 5 0;
#X connect 4 0 5 1;
#X connect 6 0 3 0;
#X connect 7 0 1 0;
#X connect 8 0 13 0;
#X connect 8 0 21 0;
#X connect 8 0 15 0;
#X connect 10 0 14 0;
#X connect 11 0 8 0;
#X connect 12 0 11 0;
#X connect 12 1 8 0;
#X connect 14 1 11 1;
#X connect 15 0 0 0;
#X connect 16 0 17 0;
#X connect 17 0 8 0;
#X connect 18 0 22 0;
#X connect 19 0 20 0;
#X connect 20 0 0 0;
#X connect 21 0 0 0;
#X connect 22 0 19 0;
#X connect 23 0 18 0;
#X coords 0 -1 1 1 85 40 2 200 50;
