#N struct 1015-template-slider float xl float xr;
#N canvas 525 44 493 327 10;
#N canvas 194 150 450 300 init 0;
#X obj 222 58 loadbang;
#X obj 222 114 s \$0-rate;
#X obj 282 114 s \$0-depth;
#X obj 313 164 s \$0-shift;
#X obj 223 164 s \$0-feedback;
#X msg 223 142 1;
#X msg 222 92 0.3;
#X msg 282 92 0.35;
#X msg 313 142 0.2;
#X msg 223 192 1;
#X obj 223 214 s \$0-sp;
#X msg 253 192 ampscale 1;
#X connect 0 0 6 0;
#X connect 0 0 7 0;
#X connect 0 0 8 0;
#X connect 0 0 5 0;
#X connect 0 0 9 0;
#X connect 0 0 11 0;
#X connect 5 0 4 0;
#X connect 6 0 1 0;
#X connect 7 0 2 0;
#X connect 8 0 3 0;
#X connect 9 0 10 0;
#X connect 11 0 10 0;
#X restore 19 7 pd init;
#X obj 14 4 pad.header pad.audioplayer~;
#X obj 72 267 pad.output~;
#X obj 72 110 pad.audioplayer~;
#X text 12 24 The audio player that allows to load and play a sound
file. The button at the top right corner of the buffer pops up a window
to choose the file. The first toggle on the left plays or stops the
buffer. The second toggle enables the loop. The slider controls the
gain and the range slider allows to select a part of a the buffer.
, f 77;
#X connect 3 0 2 0;
