#N struct 1009-template-slider float xl float xr;
#N canvas 102 23 345 760 10;
#X obj 239 46 bng 15 250 50 0 \$0-open \$0-openi empty 17 7 0 10 -262144
-1 -1;
#X obj 14 46 tgl 16 0 \$0-rplay \$0-rplayi empty 17 7 0 10 -262144
-1 -1 1 1;
#X obj 34 46 tgl 16 0 \$0-loop \$0-loopi empty 17 7 0 10 -262144 -1
-1 1 1;
#X obj 18 344 soundfiler;
#X obj 18 189 openpanel;
#X obj 18 302 pack s s;
#X obj 63 258 loadbang;
#X obj 63 280 symbol \$0-soundfile;
#X msg 18 323 read -resize \$1 \$2;
#X obj 18 571 tabplay~ \$0-soundfile;
#X obj 18 743 outlet~;
#X obj 18 165 r \$0-open;
#N canvas 300 91 450 300 imeter 0;
#X obj 217 72 env~;
#X obj 102 104 cnv 4 12 4 empty \$0-over empty 20 12 0 14 -262144 -262144
0;
#X obj 102 110 cnv 4 12 4 empty \$0-hot3 empty 20 12 0 14 -262144 -262144
0;
#X obj 102 116 cnv 4 12 4 empty \$0-hot2 empty 20 12 0 14 -262144 -262144
0;
#X obj 102 122 cnv 4 12 4 empty \$0-hot1 empty 20 12 0 14 -262144 -262144
0;
#X obj 102 146 cnv 4 12 4 empty \$0-tepid3 empty 20 12 0 14 -42246
-42246 0;
#X obj 102 152 cnv 4 12 4 empty \$0-tepid2 empty 20 12 0 14 -42246
-42246 0;
#X obj 102 158 cnv 4 12 4 empty \$0-tepid1 empty 20 12 0 14 -42246
-42246 0;
#X obj 102 128 cnv 4 12 4 empty \$0-warm3 empty 20 12 0 14 -262144
-262144 0;
#X obj 102 134 cnv 4 12 4 empty \$0-warm2 empty 20 12 0 14 -241291
-241291 0;
#X obj 102 140 cnv 4 12 4 empty \$0-warm1 empty 20 12 0 14 -241291
-241291 0;
#X obj 102 164 cnv 4 12 4 empty \$0-cold3 empty 20 12 0 14 -166441
-166441 0;
#X obj 102 170 cnv 4 12 4 empty \$0-cold2 empty 20 12 0 14 -166441
-166441 0;
#X obj 102 176 cnv 4 12 4 empty \$0-cold1 empty 20 12 0 14 -166441
-262144 0;
#X obj 217 166 change;
#X obj 217 239 s \$0-cold1;
#X obj 297 166 change;
#X msg 297 213 color \$1 \$1;
#X obj 297 144 >= 16.6667;
#X obj 217 144 >= 8.33333;
#X obj 297 239 s \$0-cold2;
#X obj 378 166 change;
#X msg 378 213 color \$1 \$1;
#X obj 378 239 s \$0-cold3;
#X obj 378 144 >= 24.9999;
#X obj 217 286 change;
#X msg 217 333 color \$1 \$1;
#X obj 297 286 change;
#X msg 297 333 color \$1 \$1;
#X obj 378 286 change;
#X msg 378 333 color \$1 \$1;
#X obj 457 166 change;
#X msg 457 213 color \$1 \$1;
#X obj 537 166 change;
#X msg 537 213 color \$1 \$1;
#X obj 618 166 change;
#X msg 618 213 color \$1 \$1;
#X obj 457 286 change;
#X msg 457 333 color \$1 \$1;
#X obj 537 286 change;
#X msg 537 333 color \$1 \$1;
#X obj 618 286 change;
#X msg 618 333 color \$1 \$1;
#X obj 217 359 s \$0-warm1;
#X obj 297 359 s \$0-warm2;
#X obj 378 359 s \$0-warm3;
#X obj 457 239 s \$0-tepid1;
#X obj 537 239 s \$0-tepid2;
#X obj 618 239 s \$0-tepid3;
#X obj 457 264 >= 83.3333;
#X obj 537 264 >= 91.6667;
#X obj 618 264 >= 99.9999;
#X obj 457 359 s \$0-hot1;
#X obj 537 359 s \$0-hot2;
#X obj 618 359 s \$0-hot3;
#X obj 457 308 * 14;
#X obj 537 308 * 14;
#X obj 618 308 * 14;
#X obj 297 308 * 15;
#X obj 378 308 * 15;
#X obj 457 188 * 26;
#X obj 537 188 * 26;
#X obj 618 188 * 26;
#X obj 217 308 * 15;
#X obj 378 188 * 1;
#X obj 297 188 * 1;
#X obj 217 188 * 1;
#X obj 719 166 change;
#X msg 719 293 color \$1 \$1;
#X obj 719 319 s \$0-over;
#X obj 719 241 f, f 5;
#X obj 719 210 f 1;
#X obj 719 268 * 13;
#X obj 719 144 >= 100;
#X obj 719 188 sel 1 0, f 10;
#X obj 779 210 delay 500;
#X obj 747 210 f 0;
#X obj 457 144 >= 33.3333;
#X obj 217 264 >= 58.3333;
#X obj 537 144 >= 41.6667;
#X obj 297 264 >= 66.6667;
#X obj 378 264 >= 74.9999;
#X obj 618 144 >= 49.9999;
#N canvas 0 22 450 300 (subpatch) 0;
#X coords 0 -1 1 1 12 4 2 100 100;
#X restore 102 104 pd;
#N canvas 0 22 450 300 (subpatch) 0;
#X coords 0 -1 1 1 12 4 2 100 100;
#X restore 102 110 pd;
#N canvas 0 22 450 300 (subpatch) 0;
#X coords 0 -1 1 1 12 4 2 100 100;
#X restore 102 116 pd;
#N canvas 0 22 450 300 (subpatch) 0;
#X coords 0 -1 1 1 12 4 2 100 100;
#X restore 102 122 pd;
#N canvas 0 22 450 300 (subpatch) 0;
#X coords 0 -1 1 1 12 4 2 100 100;
#X restore 102 128 pd;
#N canvas 0 22 450 300 (subpatch) 0;
#X coords 0 -1 1 1 12 4 2 100 100;
#X restore 102 134 pd;
#N canvas 0 22 450 300 (subpatch) 0;
#X coords 0 -1 1 1 12 4 2 100 100;
#X restore 102 140 pd;
#N canvas 0 22 450 300 (subpatch) 0;
#X coords 0 -1 1 1 12 4 2 100 100;
#X restore 102 146 pd;
#N canvas 0 22 450 300 (subpatch) 0;
#X coords 0 -1 1 1 12 4 2 100 100;
#X restore 102 152 pd;
#N canvas 0 22 450 300 (subpatch) 0;
#X coords 0 -1 1 1 12 4 2 100 100;
#X restore 102 158 pd;
#N canvas 0 22 450 300 (subpatch) 0;
#X coords 0 -1 1 1 12 4 2 100 100;
#X restore 102 164 pd;
#N canvas 0 22 450 300 (subpatch) 0;
#X coords 0 -1 1 1 12 4 2 100 100;
#X restore 102 170 pd;
#N canvas 0 22 450 300 (subpatch) 0;
#X coords 0 -1 1 1 12 4 2 100 100;
#X restore 102 176 pd;
#X msg 217 213 color \$1;
#X obj 217 36 r~ \$0-sig;
#X connect 0 0 19 0;
#X connect 0 0 18 0;
#X connect 0 0 24 0;
#X connect 0 0 49 0;
#X connect 0 0 50 0;
#X connect 0 0 51 0;
#X connect 0 0 73 0;
#X connect 0 0 77 0;
#X connect 0 0 78 0;
#X connect 0 0 79 0;
#X connect 0 0 80 0;
#X connect 0 0 81 0;
#X connect 0 0 82 0;
#X connect 14 0 66 0;
#X connect 16 0 65 0;
#X connect 17 0 20 0;
#X connect 18 0 16 0;
#X connect 19 0 14 0;
#X connect 21 0 64 0;
#X connect 22 0 23 0;
#X connect 24 0 21 0;
#X connect 25 0 63 0;
#X connect 26 0 43 0;
#X connect 27 0 58 0;
#X connect 28 0 44 0;
#X connect 29 0 59 0;
#X connect 30 0 45 0;
#X connect 31 0 60 0;
#X connect 32 0 46 0;
#X connect 33 0 61 0;
#X connect 34 0 47 0;
#X connect 35 0 62 0;
#X connect 36 0 48 0;
#X connect 37 0 55 0;
#X connect 38 0 52 0;
#X connect 39 0 56 0;
#X connect 40 0 53 0;
#X connect 41 0 57 0;
#X connect 42 0 54 0;
#X connect 49 0 37 0;
#X connect 50 0 39 0;
#X connect 51 0 41 0;
#X connect 55 0 38 0;
#X connect 56 0 40 0;
#X connect 57 0 42 0;
#X connect 58 0 28 0;
#X connect 59 0 30 0;
#X connect 60 0 32 0;
#X connect 61 0 34 0;
#X connect 62 0 36 0;
#X connect 63 0 26 0;
#X connect 64 0 22 0;
#X connect 65 0 17 0;
#X connect 66 0 96 0;
#X connect 67 0 74 0;
#X connect 68 0 69 0;
#X connect 70 0 72 0;
#X connect 71 0 70 0;
#X connect 72 0 68 0;
#X connect 73 0 67 0;
#X connect 74 0 71 0;
#X connect 74 1 75 0;
#X connect 74 1 76 0;
#X connect 75 0 70 0;
#X connect 76 0 70 1;
#X connect 77 0 31 0;
#X connect 78 0 25 0;
#X connect 79 0 33 0;
#X connect 80 0 27 0;
#X connect 81 0 29 0;
#X connect 82 0 35 0;
#X connect 96 0 15 0;
#X connect 97 0 0 0;
#X coords 0 -1 1 1 16 84 2 100 100;
#X restore 14 66 pd imeter;
#N canvas 0 22 450 278 (subpatch) 0;
#X coords 0 1 100 -1 248 20 1 0 0;
#X restore 10 10 graph;
#X text 91 12 Audio Player;
#X obj 34 68 vsl 16 79 0 120 0 0 \$0-gain \$0-gaini empty 0 -9 0 10
-262144 -1 -1 6500 1;
#X obj 45 603 r \$0-gain;
#X obj 45 625 dbtorms;
#X msg 45 647 \$1 20;
#X obj 45 669 line~;
#X obj 18 693 *~, f 5;
#N canvas 0 22 450 278 (subpatch) 0;
#X array \$0-soundfile 1.14279e+06 float 2;
#X coords 0 1 1.14279e+06 -1 200 84 2 0 0;
#X restore 54 46 graph;
#N canvas 585 44 551 682 irslider 0;
#X obj 221 159 route change;
#N canvas 480 133 665 460 \$0-template-slider 0;
#X obj 25 43 outlet;
#X obj 25 21 struct \$0-template-slider float xl float xr;
#X obj 26 66 drawpolygon 0 2 xl -0.8 xl 1;
#X obj 28 97 drawpolygon 0 2 xr -0.8 xr 1;
#X obj 211 318 pointer;
#X obj 211 247 f \$0;
#X obj 211 269 t f f;
#X msg 397 264 \; pd-\$1-data clear;
#X msg 211 294 traverse pd-\$1-data \, bang;
#X obj 28 209 t b b b, f 62;
#X obj 397 236 f \$0;
#X obj 28 339 append \$0-template-slider xl xr;
#X obj 28 184 loadbang;
#X obj 86 185 bng 15 250 50 0 empty empty empty 17 7 0 10 -262144 -1
-1;
#X obj 364 168 bng 15 250 50 0 empty empty empty 17 7 0 10 -262144
-1 -1;
#X obj 28 361 outlet;
#X msg 28 232 1 99.5;
#X obj 28 126 drawpolygon -x 0 2 xl 0.1 xr 0.1;
#X connect 1 0 0 0;
#X connect 4 0 11 2;
#X connect 5 0 6 0;
#X connect 6 0 8 0;
#X connect 8 0 4 0;
#X connect 9 0 16 0;
#X connect 9 1 5 0;
#X connect 9 2 10 0;
#X connect 10 0 7 0;
#X connect 11 0 15 0;
#X connect 12 0 9 0;
#X connect 13 0 9 0;
#X connect 14 0 10 0;
#X connect 16 0 11 0;
#X restore 221 137 pd \$0-template-slider;
#X obj 221 206 get \$0-template-slider xl xr;
#X obj 221 181 t p p, f 33;
#X obj 221 546 set \$0-template-slider xl xr, f 33;
#X obj 221 338 pack, f 28;
#X obj 221 404 spigot 0;
#X obj 221 426 swap, f 14;
#X obj 221 360 t l l, f 8;
#X obj 266 381 >;
#X obj 221 499 pack f f;
#X obj 221 470 f;
#X obj 221 269 t f f;
#X obj 386 269 t f b f;
#X obj 266 469 f;
#X obj 184 564 / 97.5;
#X obj 124 599 pack;
#X obj 124 564 / 97.5;
#X obj 221 247 clip 1 99.5;
#X obj 386 247 clip 1 99.5;
#X obj 124 542 - 1;
#X obj 184 542 - 1;
#N canvas 61 26 1238 797 \$0-data 0;
#X scalar 1009-template-slider 1 99.5 \;;
#X coords 0 -1 100 1 200 15 2 0 0;
#X restore 10 10 pd \$0-data;
#X obj 124 621 s \$0-range;
#X connect 0 0 3 0;
#X connect 1 0 0 0;
#X connect 1 1 3 0;
#X connect 2 0 18 0;
#X connect 2 1 19 0;
#X connect 3 0 2 0;
#X connect 3 1 4 2;
#X connect 5 0 8 0;
#X connect 6 0 7 0;
#X connect 7 0 11 0;
#X connect 7 1 14 0;
#X connect 8 0 6 0;
#X connect 8 1 9 0;
#X connect 9 0 6 1;
#X connect 10 0 4 0;
#X connect 11 0 10 0;
#X connect 11 0 20 0;
#X connect 12 0 5 0;
#X connect 12 1 11 0;
#X connect 13 0 5 1;
#X connect 13 2 14 0;
#X connect 14 0 10 1;
#X connect 14 0 21 0;
#X connect 15 0 16 1;
#X connect 16 0 23 0;
#X connect 17 0 16 0;
#X connect 18 0 12 0;
#X connect 19 0 13 0;
#X connect 20 0 17 0;
#X connect 21 0 15 0;
#X coords 0 -1 1 1 200 15 2 10 10;
#X restore 54 135 pd irslider;
#X obj 204 272 loadbang;
#X msg 204 294 0;
#X obj 204 316 s \$0-rplayi;
#X msg 204 412 0;
#X obj 204 434 s \$0-loopi;
#X obj 86 364 r \$0-range;
#X obj 141 593 spigot;
#X obj 174 570 r \$0-loop;
#X obj 18 471 *, f 5;
#X obj 18 450 t b f;
#X obj 111 470 *, f 5;
#X obj 111 449 t b f;
#X obj 113 408 swap;
#X obj 113 430 -, f 4;
#X obj 86 388 t f l;
#X obj 18 386 t f f;
#X obj 18 493 pack, f 16;
#X msg 18 515 set \$1 \$2;
#X msg 18 547 0 1.15451e+06;
#X obj 118 495 r \$0-rplay;
#X obj 118 517 sel 1 0;
#X msg 137 543 stop;
#X obj 38 716 s~ \$0-sig;
#X msg 204 354 100;
#X obj 204 376 s \$0-gaini;
#X obj 44 237 s \$0-rplayi;
#X obj 18 217 t s 0;
#X connect 3 0 38 0;
#X connect 4 0 49 0;
#X connect 5 0 8 0;
#X connect 6 0 7 0;
#X connect 7 0 5 1;
#X connect 8 0 3 0;
#X connect 9 0 20 0;
#X connect 9 1 29 0;
#X connect 11 0 4 0;
#X connect 16 0 17 0;
#X connect 17 0 18 0;
#X connect 18 0 19 0;
#X connect 19 0 20 1;
#X connect 20 0 10 0;
#X connect 20 0 45 0;
#X connect 23 0 24 0;
#X connect 23 0 26 0;
#X connect 23 0 46 0;
#X connect 24 0 25 0;
#X connect 26 0 27 0;
#X connect 28 0 37 0;
#X connect 29 0 41 0;
#X connect 30 0 29 1;
#X connect 31 0 39 0;
#X connect 32 0 31 0;
#X connect 32 1 31 1;
#X connect 33 0 39 1;
#X connect 34 0 33 0;
#X connect 34 1 33 1;
#X connect 35 0 36 0;
#X connect 35 1 36 1;
#X connect 36 0 34 0;
#X connect 37 0 32 0;
#X connect 37 1 35 0;
#X connect 38 0 31 0;
#X connect 38 1 33 0;
#X connect 39 0 40 0;
#X connect 40 0 41 0;
#X connect 41 0 9 0;
#X connect 42 0 43 0;
#X connect 43 0 41 0;
#X connect 43 1 44 0;
#X connect 44 0 9 0;
#X connect 46 0 47 0;
#X connect 49 0 5 0;
#X connect 49 1 48 0;
#X coords 0 -1 1 1 248 145 2 10 10;
