#N canvas 206 398 1030 727 10;
#X obj 217 72 env~;
#X obj 217 35 inlet~;
#X obj 174 104 cnv 4 4 12 empty \$0-over empty 20 12 0 14 -262144 -262144
0;
#X obj 168 104 cnv 4 4 12 empty \$0-hot3 empty 20 12 0 14 -262144 -262144
0;
#X obj 162 104 cnv 4 4 12 empty \$0-hot2 empty 20 12 0 14 -262144 -262144
0;
#X obj 156 104 cnv 4 4 12 empty \$0-hot1 empty 20 12 0 14 -262144 -262144
0;
#X obj 132 104 cnv 4 4 12 empty \$0-tepid3 empty 20 12 0 14 -262144
-262144 0;
#X obj 126 104 cnv 4 4 12 empty \$0-tepid2 empty 20 12 0 14 -262144
-262144 0;
#X obj 120 104 cnv 4 4 12 empty \$0-tepid1 empty 20 12 0 14 -262144
-262144 0;
#X obj 150 104 cnv 4 4 12 empty \$0-warm3 empty 20 12 0 14 -262144
-262144 0;
#X obj 144 104 cnv 4 4 12 empty \$0-warm2 empty 20 12 0 14 -262144
-262144 0;
#X obj 138 104 cnv 4 4 12 empty \$0-warm1 empty 20 12 0 14 -262144
-262144 0;
#X obj 114 104 cnv 4 4 12 empty \$0-cold3 empty 20 12 0 14 -262144
-262144 0;
#X obj 108 104 cnv 4 4 12 empty \$0-cold2 empty 20 12 0 14 -262144
-262144 0;
#X obj 102 104 cnv 4 4 12 empty \$0-cold1 empty 20 12 0 14 -262144
-262144 0;
#X obj 217 166 change;
#X msg 217 213 color \$1 \$1;
#X obj 217 239 s \$0-cold1;
#X obj 297 166 change;
#X msg 297 213 color \$1 \$1;
#X obj 297 144 >= 16.6667;
#X obj 217 144 >= 8.33333;
#X obj 297 239 s \$0-cold2;
#X obj 378 166 change;
#X msg 378 213 color \$1 \$1;
#X obj 378 239 s \$0-cold3;
#X obj 378 144 >= 24.9999;
#X obj 217 286 change;
#X msg 217 333 color \$1 \$1;
#X obj 297 286 change;
#X msg 297 333 color \$1 \$1;
#X obj 378 286 change;
#X msg 378 333 color \$1 \$1;
#X obj 457 166 change;
#X msg 457 213 color \$1 \$1;
#X obj 537 166 change;
#X msg 537 213 color \$1 \$1;
#X obj 618 166 change;
#X msg 618 213 color \$1 \$1;
#X obj 457 286 change;
#X msg 457 333 color \$1 \$1;
#X obj 537 286 change;
#X msg 537 333 color \$1 \$1;
#X obj 618 286 change;
#X msg 618 333 color \$1 \$1;
#X obj 217 359 s \$0-warm1;
#X obj 297 359 s \$0-warm2;
#X obj 378 359 s \$0-warm3;
#X obj 457 239 s \$0-tepid1;
#X obj 537 239 s \$0-tepid2;
#X obj 618 239 s \$0-tepid3;
#X obj 457 264 >= 83.3333;
#X obj 537 264 >= 91.6667;
#X obj 618 264 >= 99.9999;
#X obj 457 359 s \$0-hot1;
#X obj 537 359 s \$0-hot2;
#X obj 618 359 s \$0-hot3;
#X obj 457 308 * 14;
#X obj 537 308 * 14;
#X obj 618 308 * 14;
#X obj 297 308 * 15;
#X obj 378 308 * 15;
#X obj 217 104 outlet;
#X obj 457 188 * 26;
#X obj 537 188 * 26;
#X obj 618 188 * 26;
#X obj 217 308 * 15;
#X obj 378 188 * 1;
#X obj 297 188 * 1;
#X obj 217 188 * 1;
#X obj 719 166 change;
#X msg 719 293 color \$1 \$1;
#X obj 719 319 s \$0-over;
#X obj 719 241 f, f 5;
#X obj 719 210 f 1;
#X obj 719 268 * 13;
#X obj 719 144 >= 100;
#X obj 719 188 sel 1 0, f 10;
#X obj 779 210 delay 500;
#X obj 747 210 f 0;
#X obj 457 144 >= 33.3333;
#X obj 217 264 >= 58.3333;
#X obj 537 144 >= 41.6667;
#X obj 297 264 >= 66.6667;
#X obj 378 264 >= 74.9999;
#X obj 618 144 >= 49.9999;
#N canvas 0 22 450 300 (subpatch) 0;
#X coords 0 -1 1 1 4 12 2 100 100;
#X restore 174 104 pd;
#N canvas 0 22 450 300 (subpatch) 0;
#X coords 0 -1 1 1 4 12 2 100 100;
#X restore 168 104 pd;
#N canvas 0 22 450 300 (subpatch) 0;
#X coords 0 -1 1 1 4 12 2 100 100;
#X restore 162 104 pd;
#N canvas 0 22 450 300 (subpatch) 0;
#X coords 0 -1 1 1 4 12 2 100 100;
#X restore 156 104 pd;
#N canvas 0 22 450 300 (subpatch) 0;
#X coords 0 -1 1 1 4 12 2 100 100;
#X restore 150 104 pd;
#N canvas 0 22 450 300 (subpatch) 0;
#X coords 0 -1 1 1 4 12 2 100 100;
#X restore 144 104 pd;
#N canvas 0 22 450 300 (subpatch) 0;
#X coords 0 -1 1 1 4 12 2 100 100;
#X restore 138 104 pd;
#N canvas 0 22 450 300 (subpatch) 0;
#X coords 0 -1 1 1 4 12 2 100 100;
#X restore 132 104 pd;
#N canvas 0 22 450 300 (subpatch) 0;
#X coords 0 -1 1 1 4 12 2 100 100;
#X restore 126 104 pd;
#N canvas 0 22 450 300 (subpatch) 0;
#X coords 0 -1 1 1 4 12 2 100 100;
#X restore 120 104 pd;
#N canvas 0 22 450 300 (subpatch) 0;
#X coords 0 -1 1 1 4 12 2 100 100;
#X restore 114 104 pd;
#N canvas 0 22 450 300 (subpatch) 0;
#X coords 0 -1 1 1 4 12 2 100 100;
#X restore 108 104 pd;
#N canvas 0 22 450 300 (subpatch) 0;
#X coords 0 -1 1 1 4 12 2 100 100;
#X restore 102 104 pd;
#X connect 0 0 21 0;
#X connect 0 0 20 0;
#X connect 0 0 26 0;
#X connect 0 0 51 0;
#X connect 0 0 52 0;
#X connect 0 0 53 0;
#X connect 0 0 62 0;
#X connect 0 0 76 0;
#X connect 0 0 80 0;
#X connect 0 0 81 0;
#X connect 0 0 82 0;
#X connect 0 0 83 0;
#X connect 0 0 84 0;
#X connect 0 0 85 0;
#X connect 1 0 0 0;
#X connect 15 0 69 0;
#X connect 16 0 17 0;
#X connect 18 0 68 0;
#X connect 19 0 22 0;
#X connect 20 0 18 0;
#X connect 21 0 15 0;
#X connect 23 0 67 0;
#X connect 24 0 25 0;
#X connect 26 0 23 0;
#X connect 27 0 66 0;
#X connect 28 0 45 0;
#X connect 29 0 60 0;
#X connect 30 0 46 0;
#X connect 31 0 61 0;
#X connect 32 0 47 0;
#X connect 33 0 63 0;
#X connect 34 0 48 0;
#X connect 35 0 64 0;
#X connect 36 0 49 0;
#X connect 37 0 65 0;
#X connect 38 0 50 0;
#X connect 39 0 57 0;
#X connect 40 0 54 0;
#X connect 41 0 58 0;
#X connect 42 0 55 0;
#X connect 43 0 59 0;
#X connect 44 0 56 0;
#X connect 51 0 39 0;
#X connect 52 0 41 0;
#X connect 53 0 43 0;
#X connect 57 0 40 0;
#X connect 58 0 42 0;
#X connect 59 0 44 0;
#X connect 60 0 30 0;
#X connect 61 0 32 0;
#X connect 63 0 34 0;
#X connect 64 0 36 0;
#X connect 65 0 38 0;
#X connect 66 0 28 0;
#X connect 67 0 24 0;
#X connect 68 0 19 0;
#X connect 69 0 16 0;
#X connect 70 0 77 0;
#X connect 71 0 72 0;
#X connect 73 0 75 0;
#X connect 74 0 73 0;
#X connect 75 0 71 0;
#X connect 76 0 70 0;
#X connect 77 0 74 0;
#X connect 77 1 78 0;
#X connect 77 1 79 0;
#X connect 78 0 73 0;
#X connect 79 0 73 1;
#X connect 80 0 33 0;
#X connect 81 0 27 0;
#X connect 82 0 35 0;
#X connect 83 0 29 0;
#X connect 84 0 31 0;
#X connect 85 0 37 0;
#X coords 0 -1 1 1 80 20 2 100 100;
