#N struct 1127-template-slider float xl float xr;
#N canvas 130 23 1207 731 10;
#N canvas 61 26 1238 797 \$0-data 0;
#X scalar 1127-template-slider 2 99.5 \;;
#X coords 0 -1 100 1 128 15 2 0 0;
#X restore 10 10 pd \$0-data;
#X obj 221 159 route change;
#N canvas 498 139 665 460 \$0-template-slider 0;
#X obj 25 43 outlet;
#X obj 25 21 struct \$0-template-slider float xl float xr;
#X obj 27 124 filledpolygon -x 555 555 1 xl -0.8 xr -0.8 xr 0.9 xl
0.9;
#X obj 26 66 drawpolygon 0 2 xl -0.8 xl 1;
#X obj 26 96 drawpolygon 0 2 xr -0.8 xr 1;
#X obj 211 318 pointer;
#X obj 211 247 f \$0;
#X obj 211 269 t f f;
#X msg 397 264 \; pd-\$1-data clear;
#X msg 211 294 traverse pd-\$1-data \, bang;
#X obj 28 209 t b b b, f 62;
#X obj 397 236 f \$0;
#X obj 28 339 append \$0-template-slider xl xr;
#X obj 28 184 loadbang;
#X obj 86 185 bng 15 250 50 0 empty empty empty 17 7 0 10 -262144 -1
-1;
#X obj 364 168 bng 15 250 50 0 empty empty empty 17 7 0 10 -262144
-1 -1;
#X msg 28 232 2 99.5;
#X obj 28 361 outlet;
#X connect 1 0 0 0;
#X connect 5 0 12 2;
#X connect 6 0 7 0;
#X connect 7 0 9 0;
#X connect 9 0 5 0;
#X connect 10 0 16 0;
#X connect 10 1 6 0;
#X connect 10 2 11 0;
#X connect 11 0 8 0;
#X connect 12 0 17 0;
#X connect 13 0 10 0;
#X connect 14 0 10 0;
#X connect 15 0 11 0;
#X connect 16 0 12 0;
#X restore 221 137 pd \$0-template-slider;
#X obj 221 206 get \$0-template-slider xl xr;
#X obj 221 181 t p p, f 33;
#X obj 221 546 set \$0-template-slider xl xr, f 33;
#X obj 221 338 pack, f 28;
#X obj 221 404 spigot 0;
#X obj 221 426 swap, f 14;
#X obj 221 360 t l l, f 8;
#X obj 266 381 >;
#X obj 191 48 inlet;
#X obj 124 629 outlet;
#X obj 221 247 clip 2 99.5;
#X obj 221 499 pack f f;
#X obj 221 470 f;
#X obj 191 70 unpack;
#X obj 191 92 * 97.5;
#X obj 191 114 + 2;
#X obj 221 269 t f f;
#X obj 386 247 clip 2 99.5;
#X obj 386 269 t f b f;
#X obj 124 542 - 2;
#X obj 184 542 - 2;
#X obj 266 469 f;
#X obj 184 564 / 97.5;
#X obj 124 599 pack;
#X obj 124 564 / 97.5;
#X obj 406 92 * 97.5;
#X obj 406 114 + 2;
#X connect 1 0 4 0;
#X connect 2 0 1 0;
#X connect 2 1 4 0;
#X connect 3 0 13 0;
#X connect 3 1 20 0;
#X connect 4 0 3 0;
#X connect 4 1 5 2;
#X connect 6 0 9 0;
#X connect 7 0 8 0;
#X connect 8 0 15 0;
#X connect 8 1 24 0;
#X connect 9 0 7 0;
#X connect 9 1 10 0;
#X connect 10 0 7 1;
#X connect 11 0 16 0;
#X connect 13 0 19 0;
#X connect 14 0 5 0;
#X connect 15 0 14 0;
#X connect 15 0 22 0;
#X connect 16 0 17 0;
#X connect 16 1 28 0;
#X connect 17 0 18 0;
#X connect 18 0 13 0;
#X connect 19 0 6 0;
#X connect 19 1 15 0;
#X connect 20 0 21 0;
#X connect 21 0 6 1;
#X connect 21 2 24 0;
#X connect 22 0 27 0;
#X connect 23 0 25 0;
#X connect 24 0 14 1;
#X connect 24 0 23 0;
#X connect 25 0 26 1;
#X connect 26 0 12 0;
#X connect 27 0 26 0;
#X connect 28 0 29 0;
#X connect 29 0 20 0;
#X coords 0 -1 1 1 128 15 2 10 10;
