#N canvas 405 61 791 621 10;
#N canvas 61 26 1238 797 \$0-data 0;
#X coords 0 -1 1 1 251 19 2 0 0;
#X restore 10 10 pd \$0-data;
#N canvas 98 196 527 295 \$0-template-master 0;
#X obj 25 103 outlet;
#X obj 25 58 route click;
#X obj 25 80 get \$0-template-master sym;
#X obj 25 21 struct \$0-template-master float x float x2 float color
float colort float xs float ys symbol sym;
#X obj 27 164 filledpolygon color 0 1 0 -1 x2 -1 x2 1 0 1;
#X obj 26 192 drawsymbol sym xs ys colort;
#X connect 1 0 2 0;
#X connect 2 0 0 0;
#X connect 3 0 1 0;
#X restore 157 115 pd \$0-template-master;
#X obj 167 137 inlet;
#X obj 345 148 inlet;
#X obj 301 15 text define \$0-symbols;
#N canvas 115 51 480 650 fill_data 0;
#X obj 18 557 set -symbol \$0-template-master sym, f 35;
#X obj 55 399 f, f 7;
#X obj 126 237 /, f 12;
#X obj 94 328 *;
#X msg 18 534 symbol \$1;
#N canvas 100 44 455 370 list_to_text 0;
#X obj 153 25 inlet;
#X obj 153 108 list length;
#X obj 153 150 until;
#X obj 154 130 t f b, f 14;
#X obj 216 192 f 0, f 4;
#X obj 237 150 f 0;
#X obj 248 192 + 1, f 4;
#X obj 153 172 t b b, f 11;
#X obj 153 226 list split, f 11;
#X obj 153 194 list, f 5;
#X obj 153 46 t a a b, f 10;
#X msg 210 67 clear;
#X obj 184 249 list split 1;
#X obj 210 87 s \$0-symbols;
#X obj 184 279 text set \$0-symbols, f 26;
#X connect 0 0 10 0;
#X connect 1 0 3 0;
#X connect 2 0 7 0;
#X connect 3 0 2 0;
#X connect 3 1 5 0;
#X connect 4 0 6 0;
#X connect 4 0 8 1;
#X connect 4 0 14 1;
#X connect 5 0 4 1;
#X connect 6 0 4 1;
#X connect 7 0 9 0;
#X connect 7 1 4 0;
#X connect 8 1 12 0;
#X connect 9 0 8 0;
#X connect 10 0 1 0;
#X connect 10 1 9 1;
#X connect 10 2 11 0;
#X connect 11 0 13 0;
#X connect 12 0 14 0;
#X restore 82 132 pd list_to_text;
#N canvas 0 22 450 300 clear_data 0;
#X obj 37 37 inlet;
#X obj 37 59 bang;
#X obj 37 81 f \$0;
#X msg 37 103 \; pd-\$1-data clear;
#X connect 0 0 1 0;
#X connect 1 0 2 0;
#X connect 2 0 3 0;
#X restore 340 218 pd clear_data;
#N canvas 0 22 450 300 get_pointer 0;
#X obj 76 21 inlet;
#X obj 76 43 bang;
#X obj 76 65 f \$0;
#X obj 76 109 pointer;
#X obj 76 131 outlet;
#X msg 76 87 traverse pd-\$1-data \, bang;
#X connect 0 0 1 0;
#X connect 1 0 2 0;
#X connect 2 0 5 0;
#X connect 3 0 4 0;
#X connect 5 0 3 0;
#X restore 268 340 pd get_pointer;
#N canvas 0 22 140 150 counter 0;
#X obj 21 13 inlet;
#X obj 21 35 t f b, f 7;
#X obj 21 57 until;
#X obj 21 79 f 0, f 7;
#X obj 71 79 + 1;
#X obj 60 57 f 0;
#X obj 21 101 outlet;
#X connect 0 0 1 0;
#X connect 1 0 2 0;
#X connect 1 1 5 0;
#X connect 2 0 3 0;
#X connect 3 0 4 0;
#X connect 3 0 6 0;
#X connect 4 0 3 1;
#X connect 5 0 3 1;
#X restore 55 267 pd counter;
#X obj 55 193 t f b f b b, f 48;
#X obj 18 303 t f b f, f 13;
#X obj 55 111 t b a;
#X obj 55 154 text size \$0-symbols;
#X obj 18 511 text get \$0-symbols;
#X obj 55 14 inlet;
#X obj 13 222 s \$0-lsize;
#X text 103 12 Fill the data with a list;
#X obj 126 215 f 1;
#X obj 55 36 list split 2;
#X obj 55 457 append \$0-template-master x x2 color colort xs ys,
f 36;
#X obj 55 429 pack f f 999 0 f f, f 60;
#X obj 340 395 unpack f f, f 12;
#X obj 55 85 list;
#X obj 55 58 t b a;
#X obj 340 16 inlet;
#X connect 1 0 20 0;
#X connect 2 0 3 1;
#X connect 2 0 20 1;
#X connect 3 0 1 1;
#X connect 4 0 0 0;
#X connect 7 0 19 6;
#X connect 8 0 10 0;
#X connect 9 0 8 0;
#X connect 9 1 17 0;
#X connect 9 2 2 1;
#X connect 9 3 7 0;
#X connect 9 4 6 0;
#X connect 10 0 13 0;
#X connect 10 1 1 0;
#X connect 10 2 3 0;
#X connect 11 0 12 0;
#X connect 11 1 5 0;
#X connect 12 0 9 0;
#X connect 12 0 15 0;
#X connect 13 0 4 0;
#X connect 14 0 18 0;
#X connect 17 0 2 0;
#X connect 18 0 23 0;
#X connect 18 1 22 1;
#X connect 19 0 0 1;
#X connect 20 0 19 0;
#X connect 21 0 20 4;
#X connect 21 1 20 5;
#X connect 22 0 11 0;
#X connect 23 0 22 0;
#X connect 23 1 21 0;
#X connect 24 0 6 0;
#X restore 345 183 pd fill_data;
#X text 440 14 List of symbols;
#X obj 248 384 bang;
#X obj 248 406 f \$0;
#X obj 217 460 pointer;
#X msg 248 428 traverse pd-\$1-data \, bang;
#X obj 157 206 outlet;
#X obj 238 206 outlet;
#N canvas 0 22 450 300 find_symbol 0;
#X obj 148 92 text search \$0-symbols;
#X obj 148 114 t f f, f 8;
#X obj 97 162 spigot 0, f 14;
#X obj 193 137 != -1;
#X obj 148 186 f -1;
#X obj 148 72 symbol;
#X obj 97 33 t s s, f 9;
#X obj 148 228 outlet;
#X obj 98 228 outlet;
#X obj 97 3 inlet, f 9;
#X connect 0 0 1 0;
#X connect 1 0 4 0;
#X connect 1 1 3 0;
#X connect 2 0 7 0;
#X connect 3 0 2 1;
#X connect 4 0 8 0;
#X connect 5 0 0 0;
#X connect 6 0 2 0;
#X connect 6 1 5 0;
#X connect 9 0 6 0;
#X restore 157 180 pd find_symbol;
#X obj 157 236 sel -1;
#N canvas 220 221 266 174 route_input 0;
#X obj 20 14 inlet;
#X obj 20 37 route bang float symbol;
#X obj 65 59 moses 0;
#X obj 65 82 moses 0, f 10;
#X obj 122 59 r \$0-lsize;
#X obj 20 153 outlet;
#X obj 64 103 text get \$0-symbols;
#X connect 0 0 1 0;
#X connect 1 0 5 0;
#X connect 1 1 2 0;
#X connect 1 2 5 0;
#X connect 2 1 3 0;
#X connect 3 0 6 0;
#X connect 4 0 3 1;
#X connect 6 0 5 0;
#X restore 167 158 pd route_input;
#X obj 205 283 r \$0-lsize;
#X obj 190 261 t b b f, f 20;
#X obj 190 327 f;
#N canvas 0 22 140 150 counter 0;
#X obj 21 13 inlet;
#X obj 21 35 t f b, f 7;
#X obj 21 57 until;
#X obj 21 79 f 0, f 7;
#X obj 71 79 + 1;
#X obj 60 57 f 0;
#X obj 21 101 outlet;
#X connect 0 0 1 0;
#X connect 1 0 2 0;
#X connect 1 1 5 0;
#X connect 2 0 3 0;
#X connect 3 0 4 0;
#X connect 3 0 6 0;
#X connect 4 0 3 1;
#X connect 5 0 3 1;
#X restore 190 348 pd counter;
#X msg 217 428 next;
#X obj 82 447 sel, f 13;
#X msg 82 469 0 999;
#X msg 157 469 999 0;
#X obj 82 530 set \$0-template-master color colort, f 23;
#X obj 190 370 t f b;
#X obj 414 148 bng 15 250 50 0 empty empty empty 17 7 0 10 -262144
-1 -1;
#X obj 345 286 namecanvas \$0-master;
#X connect 1 0 13 0;
#X connect 2 0 15 0;
#X connect 3 0 5 0;
#X connect 7 0 8 0;
#X connect 8 0 10 0;
#X connect 9 0 24 2;
#X connect 10 0 9 0;
#X connect 13 0 11 0;
#X connect 13 0 14 0;
#X connect 13 1 12 0;
#X connect 14 1 17 0;
#X connect 15 0 13 0;
#X connect 16 0 18 1;
#X connect 17 0 18 0;
#X connect 17 1 7 0;
#X connect 17 2 21 1;
#X connect 18 0 19 0;
#X connect 19 0 25 0;
#X connect 20 0 9 0;
#X connect 21 0 22 0;
#X connect 21 1 23 0;
#X connect 22 0 24 0;
#X connect 23 0 24 0;
#X connect 25 0 21 0;
#X connect 25 1 20 0;
#X connect 26 0 5 1;
#X coords 0 -1 1 1 251 19 2 10 10;
