#N struct 1003-template-master float x float x2 float color float colort
symbol sym;
#N canvas 623 23 674 639 10;
#N canvas 61 26 1238 797 \$0-data 0;
#X scalar 1003-template-master 0 33.3333 999 0 zaza \;;
#X scalar 1003-template-master 33.3333 33.3333 999 0 zozo \;;
#X scalar 1003-template-master 66.6667 33.3333 0 999 parapluie \;;
#X coords 0 -1 100 1 237 20 2 0 0;
#X restore 36 53 pd \$0-data;
#N canvas 738 97 527 295 \$0-template-master 0;
#X obj 25 103 outlet;
#X obj 27 164 filledpolygon color 0 1 0 -1 x2 -1 x2 1 0 1;
#X obj 25 58 route click;
#X obj 25 80 get \$0-template-master sym;
#X obj 26 132 drawsymbol sym 2 y(-1:1)(-0.8:-0.4) colort;
#X obj 25 21 struct \$0-template-master float x float x2 float color
float colort symbol sym;
#X connect 2 0 3 0;
#X connect 3 0 0 0;
#X connect 5 0 2 0;
#X restore 157 115 pd \$0-template-master;
#X obj 167 137 inlet;
#X obj 345 148 inlet;
#X obj 301 15 text define \$0-symbols;
#X obj 301 45 text define \$0-positions;
#N canvas 632 23 447 538 fill_data 0;
#X obj 18 487 set -symbol \$0-template-master sym, f 35;
#X obj 55 329 f, f 7;
#X obj 126 167 /, f 12;
#X obj 94 258 *;
#X msg 18 464 symbol \$1;
#X obj 126 145 f 100;
#N canvas 100 44 455 370 list_to_text 0;
#X obj 153 25 inlet;
#X obj 153 108 list length;
#X obj 153 150 until;
#X obj 154 130 t f b, f 14;
#X obj 216 192 f 0, f 4;
#X obj 237 150 f 0;
#X obj 248 192 + 1, f 4;
#X obj 153 172 t b b, f 11;
#X obj 153 226 list split, f 11;
#X obj 153 194 list, f 5;
#X obj 153 46 t a a b, f 10;
#X msg 210 67 clear;
#X obj 184 249 list split 1;
#X obj 210 87 s \$0-symbols;
#X obj 184 279 text set \$0-symbols, f 26;
#X connect 0 0 10 0;
#X connect 1 0 3 0;
#X connect 2 0 7 0;
#X connect 3 0 2 0;
#X connect 3 1 5 0;
#X connect 4 0 6 0;
#X connect 4 0 8 1;
#X connect 4 0 14 1;
#X connect 5 0 4 1;
#X connect 6 0 4 1;
#X connect 7 0 9 0;
#X connect 7 1 4 0;
#X connect 8 1 12 0;
#X connect 9 0 8 0;
#X connect 10 0 1 0;
#X connect 10 1 9 1;
#X connect 10 2 11 0;
#X connect 11 0 13 0;
#X connect 12 0 14 0;
#X restore 82 62 pd list_to_text;
#N canvas 0 22 450 300 clear_data 0;
#X obj 37 37 inlet;
#X obj 37 59 bang;
#X obj 37 81 f \$0;
#X msg 37 103 \; pd-\$1-data clear;
#X connect 0 0 1 0;
#X connect 1 0 2 0;
#X connect 2 0 3 0;
#X restore 340 148 pd clear_data;
#N canvas 0 22 450 300 get_pointer 0;
#X obj 76 21 inlet;
#X obj 76 43 bang;
#X obj 76 65 f \$0;
#X obj 76 109 pointer;
#X obj 76 131 outlet;
#X msg 76 87 traverse pd-\$1-data \, bang;
#X connect 0 0 1 0;
#X connect 1 0 2 0;
#X connect 2 0 5 0;
#X connect 3 0 4 0;
#X connect 5 0 3 0;
#X restore 268 270 pd get_pointer;
#N canvas 0 22 140 150 counter 0;
#X obj 21 13 inlet;
#X obj 21 35 t f b, f 7;
#X obj 21 57 until;
#X obj 21 79 f 0, f 7;
#X obj 71 79 + 1;
#X obj 60 57 f 0;
#X obj 21 101 outlet;
#X connect 0 0 1 0;
#X connect 1 0 2 0;
#X connect 1 1 5 0;
#X connect 2 0 3 0;
#X connect 3 0 4 0;
#X connect 3 0 6 0;
#X connect 4 0 3 1;
#X connect 5 0 3 1;
#X restore 55 197 pd counter;
#X obj 55 123 t f b f b b, f 48;
#X obj 18 233 t f b f, f 13;
#X obj 55 41 t b a;
#X obj 55 84 text size \$0-symbols;
#X obj 18 441 text get \$0-symbols;
#X obj 55 14 inlet;
#X obj 13 152 s \$0-lsize;
#X text 103 12 Fill the data with a list;
#X obj 55 387 append \$0-template-master x x2 color colort, f 36;
#X obj 55 359 pack f f 999 0, f 36;
#X connect 1 0 19 0;
#X connect 2 0 3 1;
#X connect 2 0 19 1;
#X connect 3 0 1 1;
#X connect 4 0 0 0;
#X connect 5 0 2 0;
#X connect 8 0 18 4;
#X connect 9 0 11 0;
#X connect 10 0 9 0;
#X connect 10 1 5 0;
#X connect 10 2 2 1;
#X connect 10 3 8 0;
#X connect 10 4 7 0;
#X connect 11 0 14 0;
#X connect 11 1 1 0;
#X connect 11 2 3 0;
#X connect 12 0 13 0;
#X connect 12 1 6 0;
#X connect 13 0 10 0;
#X connect 13 0 16 0;
#X connect 14 0 4 0;
#X connect 15 0 12 0;
#X connect 18 0 0 1;
#X connect 19 0 18 0;
#X restore 345 183 pd fill_data;
#X text 440 14 List of symbols;
#X obj 248 384 bang;
#X obj 248 406 f \$0;
#X obj 217 460 pointer;
#X msg 248 428 traverse pd-\$1-data \, bang;
#X obj 157 206 outlet;
#X obj 238 206 outlet;
#X text 453 45 List of positions todo;
#N canvas 0 22 450 300 find_symbol 0;
#X obj 148 92 text search \$0-symbols;
#X obj 148 114 t f f, f 8;
#X obj 97 162 spigot 0, f 14;
#X obj 193 137 != -1;
#X obj 148 186 f -1;
#X obj 148 72 symbol;
#X obj 97 33 t s s, f 9;
#X obj 148 228 outlet;
#X obj 98 228 outlet;
#X obj 97 3 inlet, f 9;
#X connect 0 0 1 0;
#X connect 1 0 4 0;
#X connect 1 1 3 0;
#X connect 2 0 7 0;
#X connect 3 0 2 1;
#X connect 4 0 8 0;
#X connect 5 0 0 0;
#X connect 6 0 2 0;
#X connect 6 1 5 0;
#X connect 9 0 6 0;
#X restore 157 180 pd find_symbol;
#X obj 157 236 sel -1;
#N canvas 0 22 266 174 route_input 0;
#X obj 20 14 inlet;
#X obj 20 37 route bang float symbol;
#X obj 64 102 text search \$0-symbols;
#X obj 65 59 moses 0;
#X obj 65 81 moses 0, f 10;
#X obj 122 59 r \$0-lsize;
#X obj 20 139 outlet;
#X connect 0 0 1 0;
#X connect 1 0 6 0;
#X connect 1 1 3 0;
#X connect 1 2 6 0;
#X connect 2 0 6 0;
#X connect 3 1 4 0;
#X connect 4 0 2 0;
#X connect 5 0 4 1;
#X restore 167 158 pd route_input;
#X obj 205 283 r \$0-lsize;
#X obj 190 261 t b b f, f 20;
#X obj 190 327 f;
#N canvas 0 22 140 150 counter 0;
#X obj 21 13 inlet;
#X obj 21 35 t f b, f 7;
#X obj 21 57 until;
#X obj 21 79 f 0, f 7;
#X obj 71 79 + 1;
#X obj 60 57 f 0;
#X obj 21 101 outlet;
#X connect 0 0 1 0;
#X connect 1 0 2 0;
#X connect 1 1 5 0;
#X connect 2 0 3 0;
#X connect 3 0 4 0;
#X connect 3 0 6 0;
#X connect 4 0 3 1;
#X connect 5 0 3 1;
#X restore 190 348 pd counter;
#X msg 217 428 next;
#X obj 392 112 loadbang;
#X obj 82 447 sel, f 13;
#X msg 82 469 0 999;
#X msg 157 469 999 0;
#X obj 82 530 set \$0-template-master color colort, f 23;
#X msg 392 148 list zaza zozo parapluie;
#X obj 190 370 t f b;
#X connect 1 0 15 0;
#X connect 2 0 17 0;
#X connect 3 0 6 0;
#X connect 8 0 9 0;
#X connect 9 0 11 0;
#X connect 10 0 27 2;
#X connect 11 0 10 0;
#X connect 15 0 12 0;
#X connect 15 0 16 0;
#X connect 15 1 13 0;
#X connect 16 1 19 0;
#X connect 17 0 15 0;
#X connect 18 0 20 1;
#X connect 19 0 20 0;
#X connect 19 1 8 0;
#X connect 19 2 24 1;
#X connect 20 0 21 0;
#X connect 21 0 29 0;
#X connect 22 0 10 0;
#X connect 23 0 28 0;
#X connect 24 0 25 0;
#X connect 24 1 26 0;
#X connect 25 0 27 0;
#X connect 26 0 27 0;
#X connect 28 0 6 0;
#X connect 29 0 24 0;
#X connect 29 1 22 0;
