#N struct 1003-template-slider float xl float xr;
#N canvas 50 28 1207 731 10;
#X obj 19 40 tgl 15 0 empty \$0-rplay empty 17 7 0 10 -262144 -1 -1
0 1;
#X obj 19 68 t f b;
#X obj 19 8 r \$0-start;
#X text 38 37 Start/Stop;
#X obj 173 63 bng 15 250 50 0 empty \$0-open empty 17 7 0 10 -262144
-1 -1;
#X obj 307 325 bng 15 250 50 0 \$0-open \$0-openi empty 17 7 0 10 -262144
-1 -1;
#X obj 307 444 nbx 5 14 0 100 0 0 \$0-gain empty empty 0 -8 0 10 -262144
-1 -1 0 256;
#X text 363 441 dB;
#X obj 307 365 tgl 15 0 \$0-rplay empty empty 17 7 0 10 -262144 -1
-1 0 1;
#X text 304 303 Open;
#X text 306 424 Gain;
#X text 305 343 Play/Pause;
#X obj 307 405 tgl 15 0 \$0-loop empty empty 17 7 0 10 -262144 -1 -1
0 1;
#X text 305 383 Loop;
#X obj 299 19 pad.vumeter~;
#N canvas 0 22 450 278 (subpatch) 0;
#X array \$0-soundfile 1.14279e+06 float 2;
#X coords 0 1 1.14279e+06 -1 200 100 1 0 0;
#X restore 353 75 graph;
#X obj 173 215 soundfiler;
#X obj 173 85 openpanel;
#X obj 173 158 pack s s;
#X obj 218 114 loadbang;
#X obj 218 136 symbol \$0-soundfile;
#X msg 173 185 read -resize \$1 \$2;
#X obj 17 421 tabplay~ \$0-soundfile;
#X obj 17 483 outlet;
#N canvas 61 26 1238 797 \$0-data 0;
#X scalar 1003-template-slider 38 64.5 \;;
#X coords 0 -1 100 1 200 15 2 0 0;
#X restore 353 180 pd \$0-data;
#X obj 723 519 pointer;
#X obj 723 448 f \$0;
#X obj 723 470 t f f;
#X msg 909 465 \; pd-\$1-data clear;
#X msg 723 495 traverse pd-\$1-data \, bang;
#X obj 540 410 t b b b, f 62;
#X obj 909 437 f \$0;
#X obj 701 130 route change;
#N canvas 939 153 450 300 \$0-template-slider 0;
#X obj 25 43 outlet;
#X obj 25 21 struct \$0-template-slider float xl float xr;
#X obj 27 124 filledpolygon -x 555 555 1 xl -0.8 xr -0.8 xr 0.9 xl
0.9;
#X obj 26 66 drawpolygon 0 2 xl -0.8 xl 1;
#X obj 26 96 drawpolygon 0 2 xr -0.8 xr 1;
#X connect 1 0 0 0;
#X restore 701 108 pd \$0-template-slider;
#X obj 701 177 get \$0-template-slider xl xr;
#X obj 540 540 append \$0-template-slider xl xr;
#X msg 540 433 1 99.5;
#X obj 701 152 t p p, f 33;
#X obj 701 377 set \$0-template-slider xl xr;
#X obj 701 259 pack, f 28;
#X obj 701 325 spigot 0;
#X obj 701 347 swap, f 14;
#X obj 701 281 t l l, f 8;
#X obj 540 385 loadbang;
#X obj 866 228 clip 1 99.5;
#X obj 701 228 clip 1 99.5;
#X obj 953 231 moses 99.5;
#X obj 1010 256 t b b;
#X obj 1037 277 f 99.5;
#X obj 614 259 moses 1;
#X obj 614 281 t b;
#X obj 614 303 f 1;
#X obj 866 201 t f f, f 15;
#X obj 614 201 t f f, f 15;
#X obj 746 302 >;
#X obj 562 350 bng 15 250 50 0 empty empty empty 17 7 0 10 -262144
-1 -1;
#X connect 0 0 1 0;
#X connect 2 0 0 0;
#X connect 4 0 17 0;
#X connect 17 0 18 0;
#X connect 18 0 21 0;
#X connect 19 0 20 0;
#X connect 20 0 18 1;
#X connect 21 0 16 0;
#X connect 22 0 23 0;
#X connect 25 0 35 2;
#X connect 26 0 27 0;
#X connect 27 0 29 0;
#X connect 29 0 25 0;
#X connect 30 0 36 0;
#X connect 30 1 26 0;
#X connect 30 2 31 0;
#X connect 31 0 28 0;
#X connect 32 0 37 0;
#X connect 33 0 32 0;
#X connect 34 0 53 0;
#X connect 34 1 52 0;
#X connect 36 0 35 0;
#X connect 37 0 34 0;
#X connect 37 1 38 2;
#X connect 39 0 42 0;
#X connect 40 0 41 0;
#X connect 41 0 38 0;
#X connect 41 1 38 1;
#X connect 42 0 40 0;
#X connect 42 1 54 0;
#X connect 43 0 30 0;
#X connect 44 0 39 1;
#X connect 45 0 39 0;
#X connect 46 0 38 1;
#X connect 46 1 47 0;
#X connect 47 0 38 0;
#X connect 47 1 48 0;
#X connect 48 0 38 1;
#X connect 49 0 50 0;
#X connect 49 1 38 0;
#X connect 50 0 51 0;
#X connect 51 0 38 0;
#X connect 52 0 44 0;
#X connect 52 1 46 0;
#X connect 53 0 45 0;
#X connect 53 1 49 0;
#X connect 54 0 40 1;
#X connect 55 0 30 0;
#X coords 0 -1 1 1 200 170 2 300 300;
